<mxfile host="app.diagrams.net" modified="2024-02-08T10:00:19.992Z" agent="Mozilla/5.0 (Windows NT 10.0; Win64; x64) AppleWebKit/537.36 (KHTML, like Gecko) Chrome/120.0.0.0 Safari/537.36 OPR/106.0.0.0" etag="62YXS7dVX84fWfaJVyEK" version="23.1.1" type="device" pages="4">
  <diagram name="build-main-graph" id="mfnJFY9F6ccII2187Frm">
    <mxGraphModel dx="1380" dy="749" grid="1" gridSize="10" guides="1" tooltips="1" connect="1" arrows="1" fold="1" page="1" pageScale="1" pageWidth="850" pageHeight="1100" math="0" shadow="0">
      <root>
        <mxCell id="0" />
        <mxCell id="1" parent="0" />
        <mxCell id="eIOuXDFr-VQu5ciKWuzh-7" value="" style="edgeStyle=orthogonalEdgeStyle;rounded=0;orthogonalLoop=1;jettySize=auto;html=1;" parent="1" source="eIOuXDFr-VQu5ciKWuzh-1" target="eIOuXDFr-VQu5ciKWuzh-6" edge="1">
          <mxGeometry relative="1" as="geometry" />
        </mxCell>
        <mxCell id="eIOuXDFr-VQu5ciKWuzh-8" value="&lt;font style=&quot;font-size: 15px;&quot;&gt;Using API&lt;/font&gt;" style="edgeLabel;html=1;align=center;verticalAlign=middle;resizable=0;points=[];" parent="eIOuXDFr-VQu5ciKWuzh-7" vertex="1" connectable="0">
          <mxGeometry x="0.1" y="2" relative="1" as="geometry">
            <mxPoint as="offset" />
          </mxGeometry>
        </mxCell>
        <mxCell id="eIOuXDFr-VQu5ciKWuzh-1" value="&lt;font style=&quot;font-size: 15px;&quot;&gt;DisGeNet&lt;/font&gt;" style="rounded=0;whiteSpace=wrap;html=1;" parent="1" vertex="1">
          <mxGeometry x="80" y="40" width="160" height="60" as="geometry" />
        </mxCell>
        <mxCell id="eIOuXDFr-VQu5ciKWuzh-4" value="" style="edgeStyle=orthogonalEdgeStyle;rounded=0;orthogonalLoop=1;jettySize=auto;html=1;" parent="1" source="eIOuXDFr-VQu5ciKWuzh-2" target="eIOuXDFr-VQu5ciKWuzh-3" edge="1">
          <mxGeometry relative="1" as="geometry" />
        </mxCell>
        <mxCell id="eIOuXDFr-VQu5ciKWuzh-5" value="&lt;font style=&quot;font-size: 15px;&quot;&gt;Using API&lt;/font&gt;" style="edgeLabel;html=1;align=center;verticalAlign=middle;resizable=0;points=[];" parent="eIOuXDFr-VQu5ciKWuzh-4" vertex="1" connectable="0">
          <mxGeometry x="-0.4" y="3" relative="1" as="geometry">
            <mxPoint x="-3" y="16" as="offset" />
          </mxGeometry>
        </mxCell>
        <mxCell id="eIOuXDFr-VQu5ciKWuzh-2" value="&lt;font style=&quot;font-size: 15px;&quot;&gt;UMLS&lt;/font&gt;" style="rounded=0;whiteSpace=wrap;html=1;" parent="1" vertex="1">
          <mxGeometry x="590" y="40" width="160" height="60" as="geometry" />
        </mxCell>
        <mxCell id="eIOuXDFr-VQu5ciKWuzh-24" value="" style="edgeStyle=orthogonalEdgeStyle;rounded=0;orthogonalLoop=1;jettySize=auto;html=1;" parent="1" source="eIOuXDFr-VQu5ciKWuzh-3" target="eIOuXDFr-VQu5ciKWuzh-23" edge="1">
          <mxGeometry relative="1" as="geometry" />
        </mxCell>
        <mxCell id="eIOuXDFr-VQu5ciKWuzh-25" value="&lt;font style=&quot;font-size: 15px;&quot;&gt;Using Hugging Face&lt;/font&gt;" style="edgeLabel;html=1;align=center;verticalAlign=middle;resizable=0;points=[];" parent="eIOuXDFr-VQu5ciKWuzh-24" vertex="1" connectable="0">
          <mxGeometry x="0.0182" y="2" relative="1" as="geometry">
            <mxPoint as="offset" />
          </mxGeometry>
        </mxCell>
        <mxCell id="eIOuXDFr-VQu5ciKWuzh-3" value="&lt;span style=&quot;font-size: 15px;&quot;&gt;Disease Definement&lt;/span&gt;" style="rounded=0;whiteSpace=wrap;html=1;" parent="1" vertex="1">
          <mxGeometry x="590" y="220" width="160" height="60" as="geometry" />
        </mxCell>
        <mxCell id="eIOuXDFr-VQu5ciKWuzh-10" value="" style="edgeStyle=orthogonalEdgeStyle;rounded=0;orthogonalLoop=1;jettySize=auto;html=1;entryX=0;entryY=0.5;entryDx=0;entryDy=0;" parent="1" target="eIOuXDFr-VQu5ciKWuzh-2" edge="1">
          <mxGeometry relative="1" as="geometry">
            <mxPoint x="240" y="310" as="sourcePoint" />
            <mxPoint x="570" y="320" as="targetPoint" />
            <Array as="points" />
          </mxGeometry>
        </mxCell>
        <mxCell id="eIOuXDFr-VQu5ciKWuzh-17" value="&lt;font style=&quot;font-size: 15px;&quot;&gt;Disease&lt;/font&gt;" style="edgeLabel;html=1;align=center;verticalAlign=middle;resizable=0;points=[];" parent="eIOuXDFr-VQu5ciKWuzh-10" vertex="1" connectable="0">
          <mxGeometry x="-0.0516" y="3" relative="1" as="geometry">
            <mxPoint x="1" as="offset" />
          </mxGeometry>
        </mxCell>
        <mxCell id="eIOuXDFr-VQu5ciKWuzh-15" style="edgeStyle=orthogonalEdgeStyle;rounded=0;orthogonalLoop=1;jettySize=auto;html=1;exitX=1;exitY=0.75;exitDx=0;exitDy=0;" parent="1" source="eIOuXDFr-VQu5ciKWuzh-6" target="eIOuXDFr-VQu5ciKWuzh-13" edge="1">
          <mxGeometry relative="1" as="geometry">
            <Array as="points">
              <mxPoint x="240" y="370" />
            </Array>
          </mxGeometry>
        </mxCell>
        <mxCell id="eIOuXDFr-VQu5ciKWuzh-16" value="&lt;font style=&quot;font-size: 15px;&quot;&gt;Gene&lt;/font&gt;" style="edgeLabel;html=1;align=center;verticalAlign=middle;resizable=0;points=[];" parent="eIOuXDFr-VQu5ciKWuzh-15" vertex="1" connectable="0">
          <mxGeometry x="0.0323" y="-1" relative="1" as="geometry">
            <mxPoint as="offset" />
          </mxGeometry>
        </mxCell>
        <mxCell id="eIOuXDFr-VQu5ciKWuzh-35" style="edgeStyle=orthogonalEdgeStyle;rounded=0;orthogonalLoop=1;jettySize=auto;html=1;entryX=0;entryY=0.5;entryDx=0;entryDy=0;" parent="1" target="eIOuXDFr-VQu5ciKWuzh-32" edge="1">
          <mxGeometry relative="1" as="geometry">
            <mxPoint x="160" y="400" as="sourcePoint" />
            <mxPoint x="570" y="850" as="targetPoint" />
            <Array as="points">
              <mxPoint x="160" y="880" />
            </Array>
          </mxGeometry>
        </mxCell>
        <mxCell id="eIOuXDFr-VQu5ciKWuzh-36" value="&lt;font style=&quot;font-size: 15px;&quot;&gt;Using GDA Associations&lt;br&gt;Based on association score&lt;br&gt;&lt;/font&gt;" style="edgeLabel;html=1;align=center;verticalAlign=middle;resizable=0;points=[];" parent="eIOuXDFr-VQu5ciKWuzh-35" vertex="1" connectable="0">
          <mxGeometry x="-0.2025" y="1" relative="1" as="geometry">
            <mxPoint as="offset" />
          </mxGeometry>
        </mxCell>
        <mxCell id="eIOuXDFr-VQu5ciKWuzh-6" value="&lt;span style=&quot;font-size: 15px;&quot;&gt;Gene-Disease Association&lt;/span&gt;" style="rounded=0;whiteSpace=wrap;html=1;" parent="1" vertex="1">
          <mxGeometry x="80" y="300" width="160" height="100" as="geometry" />
        </mxCell>
        <mxCell id="eIOuXDFr-VQu5ciKWuzh-11" value="" style="edgeStyle=orthogonalEdgeStyle;rounded=0;orthogonalLoop=1;jettySize=auto;html=1;" parent="1" source="eIOuXDFr-VQu5ciKWuzh-13" target="eIOuXDFr-VQu5ciKWuzh-14" edge="1">
          <mxGeometry relative="1" as="geometry" />
        </mxCell>
        <mxCell id="eIOuXDFr-VQu5ciKWuzh-12" value="&lt;font style=&quot;font-size: 15px;&quot;&gt;Prot-T5&lt;/font&gt;" style="edgeLabel;html=1;align=center;verticalAlign=middle;resizable=0;points=[];" parent="eIOuXDFr-VQu5ciKWuzh-11" vertex="1" connectable="0">
          <mxGeometry x="-0.4" y="3" relative="1" as="geometry">
            <mxPoint x="-3" y="16" as="offset" />
          </mxGeometry>
        </mxCell>
        <mxCell id="eIOuXDFr-VQu5ciKWuzh-13" value="&lt;font style=&quot;font-size: 15px;&quot;&gt;UniProt&lt;/font&gt;" style="rounded=0;whiteSpace=wrap;html=1;" parent="1" vertex="1">
          <mxGeometry x="390" y="340" width="160" height="60" as="geometry" />
        </mxCell>
        <mxCell id="eIOuXDFr-VQu5ciKWuzh-19" value="" style="edgeStyle=orthogonalEdgeStyle;rounded=0;orthogonalLoop=1;jettySize=auto;html=1;" parent="1" source="eIOuXDFr-VQu5ciKWuzh-14" target="eIOuXDFr-VQu5ciKWuzh-18" edge="1">
          <mxGeometry relative="1" as="geometry" />
        </mxCell>
        <mxCell id="eIOuXDFr-VQu5ciKWuzh-14" value="&lt;span style=&quot;font-size: 15px; background-color: rgb(255, 255, 255);&quot;&gt;Find Protein Vector&lt;br&gt;Size: (1x1024)&lt;/span&gt;" style="rounded=0;whiteSpace=wrap;html=1;" parent="1" vertex="1">
          <mxGeometry x="390" y="520" width="160" height="60" as="geometry" />
        </mxCell>
        <mxCell id="eIOuXDFr-VQu5ciKWuzh-33" value="" style="edgeStyle=orthogonalEdgeStyle;rounded=0;orthogonalLoop=1;jettySize=auto;html=1;" parent="1" source="eIOuXDFr-VQu5ciKWuzh-18" target="eIOuXDFr-VQu5ciKWuzh-32" edge="1">
          <mxGeometry relative="1" as="geometry">
            <Array as="points">
              <mxPoint x="470" y="790" />
              <mxPoint x="570" y="790" />
            </Array>
          </mxGeometry>
        </mxCell>
        <mxCell id="eIOuXDFr-VQu5ciKWuzh-18" value="&lt;font style=&quot;font-size: 15px;&quot;&gt;Adding zeros end of the vector&lt;br&gt;Size: (1x1792)&lt;br&gt;&lt;/font&gt;" style="rounded=0;whiteSpace=wrap;html=1;" parent="1" vertex="1">
          <mxGeometry x="390" y="660" width="160" height="60" as="geometry" />
        </mxCell>
        <mxCell id="eIOuXDFr-VQu5ciKWuzh-27" value="" style="edgeStyle=orthogonalEdgeStyle;rounded=0;orthogonalLoop=1;jettySize=auto;html=1;" parent="1" source="eIOuXDFr-VQu5ciKWuzh-23" target="eIOuXDFr-VQu5ciKWuzh-26" edge="1">
          <mxGeometry relative="1" as="geometry" />
        </mxCell>
        <mxCell id="eIOuXDFr-VQu5ciKWuzh-23" value="&lt;font style=&quot;font-size: 15px;&quot;&gt;Find BioBert Model&lt;/font&gt;" style="rounded=0;whiteSpace=wrap;html=1;" parent="1" vertex="1">
          <mxGeometry x="590" y="390" width="160" height="60" as="geometry" />
        </mxCell>
        <mxCell id="eIOuXDFr-VQu5ciKWuzh-26" value="&lt;font style=&quot;font-size: 15px;&quot;&gt;Generate DÄ°sase Vector&lt;br&gt;Size: (1x768)&lt;br&gt;&lt;/font&gt;" style="rounded=0;whiteSpace=wrap;html=1;" parent="1" vertex="1">
          <mxGeometry x="590" y="530" width="160" height="60" as="geometry" />
        </mxCell>
        <mxCell id="eIOuXDFr-VQu5ciKWuzh-34" style="edgeStyle=orthogonalEdgeStyle;rounded=0;orthogonalLoop=1;jettySize=auto;html=1;entryX=0.5;entryY=0;entryDx=0;entryDy=0;" parent="1" source="eIOuXDFr-VQu5ciKWuzh-30" target="eIOuXDFr-VQu5ciKWuzh-32" edge="1">
          <mxGeometry relative="1" as="geometry">
            <Array as="points">
              <mxPoint x="670" y="790" />
              <mxPoint x="570" y="790" />
            </Array>
          </mxGeometry>
        </mxCell>
        <mxCell id="eIOuXDFr-VQu5ciKWuzh-30" value="&lt;font style=&quot;font-size: 15px;&quot;&gt;Adding zeros beginning of the vector&lt;br&gt;Size: (1x1792)&lt;br&gt;&lt;/font&gt;" style="rounded=0;whiteSpace=wrap;html=1;" parent="1" vertex="1">
          <mxGeometry x="590" y="660" width="160" height="60" as="geometry" />
        </mxCell>
        <mxCell id="eIOuXDFr-VQu5ciKWuzh-31" value="" style="edgeStyle=orthogonalEdgeStyle;rounded=0;orthogonalLoop=1;jettySize=auto;html=1;entryX=0.499;entryY=-0.067;entryDx=0;entryDy=0;entryPerimeter=0;exitX=0.5;exitY=1;exitDx=0;exitDy=0;" parent="1" source="eIOuXDFr-VQu5ciKWuzh-26" target="eIOuXDFr-VQu5ciKWuzh-30" edge="1">
          <mxGeometry relative="1" as="geometry">
            <mxPoint x="669.73" y="590" as="sourcePoint" />
            <mxPoint x="680" y="650" as="targetPoint" />
          </mxGeometry>
        </mxCell>
        <mxCell id="eIOuXDFr-VQu5ciKWuzh-32" value="&lt;font style=&quot;font-size: 15px;&quot;&gt;Build Graph via NetworkX&lt;br&gt;&lt;/font&gt;" style="rounded=0;whiteSpace=wrap;html=1;" parent="1" vertex="1">
          <mxGeometry x="490" y="850" width="160" height="60" as="geometry" />
        </mxCell>
        <mxCell id="eIOuXDFr-VQu5ciKWuzh-40" style="edgeStyle=orthogonalEdgeStyle;rounded=0;orthogonalLoop=1;jettySize=auto;html=1;entryX=0.5;entryY=1;entryDx=0;entryDy=0;" parent="1" source="eIOuXDFr-VQu5ciKWuzh-37" target="eIOuXDFr-VQu5ciKWuzh-32" edge="1">
          <mxGeometry relative="1" as="geometry">
            <Array as="points">
              <mxPoint x="320" y="950" />
              <mxPoint x="570" y="950" />
            </Array>
          </mxGeometry>
        </mxCell>
        <mxCell id="eIOuXDFr-VQu5ciKWuzh-41" value="&lt;font style=&quot;font-size: 15px;&quot;&gt;via BÄ°oGrid&lt;/font&gt;" style="edgeLabel;html=1;align=center;verticalAlign=middle;resizable=0;points=[];" parent="eIOuXDFr-VQu5ciKWuzh-40" vertex="1" connectable="0">
          <mxGeometry x="-0.4535" relative="1" as="geometry">
            <mxPoint x="40" y="-12" as="offset" />
          </mxGeometry>
        </mxCell>
        <mxCell id="eIOuXDFr-VQu5ciKWuzh-37" value="&lt;font style=&quot;font-size: 15px;&quot;&gt;Adding Gene-Gene Association&lt;br&gt;&lt;/font&gt;" style="rounded=0;whiteSpace=wrap;html=1;" parent="1" vertex="1">
          <mxGeometry x="265" y="990" width="160" height="60" as="geometry" />
        </mxCell>
        <mxCell id="eIOuXDFr-VQu5ciKWuzh-39" style="edgeStyle=orthogonalEdgeStyle;rounded=0;orthogonalLoop=1;jettySize=auto;html=1;entryX=0.5;entryY=1;entryDx=0;entryDy=0;" parent="1" source="eIOuXDFr-VQu5ciKWuzh-38" target="eIOuXDFr-VQu5ciKWuzh-32" edge="1">
          <mxGeometry relative="1" as="geometry">
            <Array as="points">
              <mxPoint x="740" y="950" />
              <mxPoint x="570" y="950" />
            </Array>
          </mxGeometry>
        </mxCell>
        <mxCell id="eIOuXDFr-VQu5ciKWuzh-43" value="&lt;font style=&quot;font-size: 15px;&quot;&gt;via DisGeNet API&lt;/font&gt;" style="edgeLabel;html=1;align=center;verticalAlign=middle;resizable=0;points=[];" parent="eIOuXDFr-VQu5ciKWuzh-39" vertex="1" connectable="0">
          <mxGeometry x="-0.2926" relative="1" as="geometry">
            <mxPoint x="-11" y="-12" as="offset" />
          </mxGeometry>
        </mxCell>
        <mxCell id="eIOuXDFr-VQu5ciKWuzh-38" value="&lt;font style=&quot;font-size: 15px;&quot;&gt;Adding Disease-Disease Association&amp;nbsp;&lt;br&gt;&lt;/font&gt;" style="rounded=0;whiteSpace=wrap;html=1;" parent="1" vertex="1">
          <mxGeometry x="660" y="990" width="160" height="60" as="geometry" />
        </mxCell>
      </root>
    </mxGraphModel>
  </diagram>
  <diagram name="build-skipgnn-graph" id="JHnKwB50rCHRGjWCGhqT">
    <mxGraphModel dx="1380" dy="749" grid="1" gridSize="10" guides="1" tooltips="1" connect="1" arrows="1" fold="1" page="1" pageScale="1" pageWidth="850" pageHeight="1100" math="0" shadow="0">
      <root>
        <mxCell id="XT1h-44MnQtlT5rtDKyg-0" />
        <mxCell id="XT1h-44MnQtlT5rtDKyg-1" parent="XT1h-44MnQtlT5rtDKyg-0" />
        <mxCell id="XT1h-44MnQtlT5rtDKyg-2" value="" style="edgeStyle=orthogonalEdgeStyle;rounded=0;orthogonalLoop=1;jettySize=auto;html=1;" edge="1" parent="XT1h-44MnQtlT5rtDKyg-1" source="XT1h-44MnQtlT5rtDKyg-4" target="XT1h-44MnQtlT5rtDKyg-17">
          <mxGeometry relative="1" as="geometry" />
        </mxCell>
        <mxCell id="XT1h-44MnQtlT5rtDKyg-3" value="&lt;font style=&quot;font-size: 15px;&quot;&gt;Dataset : curated&lt;/font&gt;" style="edgeLabel;html=1;align=center;verticalAlign=middle;resizable=0;points=[];" vertex="1" connectable="0" parent="XT1h-44MnQtlT5rtDKyg-2">
          <mxGeometry x="0.1" y="2" relative="1" as="geometry">
            <mxPoint as="offset" />
          </mxGeometry>
        </mxCell>
        <mxCell id="XT1h-44MnQtlT5rtDKyg-4" value="&lt;font style=&quot;font-size: 15px;&quot;&gt;DisGeNet&lt;/font&gt;" style="rounded=0;whiteSpace=wrap;html=1;" vertex="1" parent="XT1h-44MnQtlT5rtDKyg-1">
          <mxGeometry x="80" y="40" width="160" height="60" as="geometry" />
        </mxCell>
        <mxCell id="XT1h-44MnQtlT5rtDKyg-5" value="" style="edgeStyle=orthogonalEdgeStyle;rounded=0;orthogonalLoop=1;jettySize=auto;html=1;" edge="1" parent="XT1h-44MnQtlT5rtDKyg-1" source="XT1h-44MnQtlT5rtDKyg-7" target="XT1h-44MnQtlT5rtDKyg-10">
          <mxGeometry relative="1" as="geometry" />
        </mxCell>
        <mxCell id="XT1h-44MnQtlT5rtDKyg-6" value="&lt;font style=&quot;font-size: 15px;&quot;&gt;Using API&lt;/font&gt;" style="edgeLabel;html=1;align=center;verticalAlign=middle;resizable=0;points=[];" vertex="1" connectable="0" parent="XT1h-44MnQtlT5rtDKyg-5">
          <mxGeometry x="-0.4" y="3" relative="1" as="geometry">
            <mxPoint x="-3" y="16" as="offset" />
          </mxGeometry>
        </mxCell>
        <mxCell id="XT1h-44MnQtlT5rtDKyg-7" value="&lt;font style=&quot;font-size: 15px;&quot;&gt;UMLS&lt;/font&gt;" style="rounded=0;whiteSpace=wrap;html=1;" vertex="1" parent="XT1h-44MnQtlT5rtDKyg-1">
          <mxGeometry x="590" y="40" width="160" height="60" as="geometry" />
        </mxCell>
        <mxCell id="XT1h-44MnQtlT5rtDKyg-8" value="" style="edgeStyle=orthogonalEdgeStyle;rounded=0;orthogonalLoop=1;jettySize=auto;html=1;" edge="1" parent="XT1h-44MnQtlT5rtDKyg-1" source="XT1h-44MnQtlT5rtDKyg-10" target="XT1h-44MnQtlT5rtDKyg-26">
          <mxGeometry relative="1" as="geometry" />
        </mxCell>
        <mxCell id="XT1h-44MnQtlT5rtDKyg-9" value="&lt;font style=&quot;font-size: 15px;&quot;&gt;Using Hugging Face&lt;/font&gt;" style="edgeLabel;html=1;align=center;verticalAlign=middle;resizable=0;points=[];" vertex="1" connectable="0" parent="XT1h-44MnQtlT5rtDKyg-8">
          <mxGeometry x="0.0182" y="2" relative="1" as="geometry">
            <mxPoint as="offset" />
          </mxGeometry>
        </mxCell>
        <mxCell id="XT1h-44MnQtlT5rtDKyg-10" value="&lt;span style=&quot;font-size: 15px;&quot;&gt;Disease Definement&lt;/span&gt;" style="rounded=0;whiteSpace=wrap;html=1;" vertex="1" parent="XT1h-44MnQtlT5rtDKyg-1">
          <mxGeometry x="590" y="220" width="160" height="60" as="geometry" />
        </mxCell>
        <mxCell id="XT1h-44MnQtlT5rtDKyg-11" value="" style="edgeStyle=orthogonalEdgeStyle;rounded=0;orthogonalLoop=1;jettySize=auto;html=1;entryX=0;entryY=0.5;entryDx=0;entryDy=0;" edge="1" parent="XT1h-44MnQtlT5rtDKyg-1" target="XT1h-44MnQtlT5rtDKyg-7">
          <mxGeometry relative="1" as="geometry">
            <mxPoint x="240" y="310" as="sourcePoint" />
            <mxPoint x="570" y="320" as="targetPoint" />
            <Array as="points" />
          </mxGeometry>
        </mxCell>
        <mxCell id="XT1h-44MnQtlT5rtDKyg-12" value="&lt;font style=&quot;font-size: 15px;&quot;&gt;Disease&lt;/font&gt;" style="edgeLabel;html=1;align=center;verticalAlign=middle;resizable=0;points=[];" vertex="1" connectable="0" parent="XT1h-44MnQtlT5rtDKyg-11">
          <mxGeometry x="-0.0516" y="3" relative="1" as="geometry">
            <mxPoint x="1" as="offset" />
          </mxGeometry>
        </mxCell>
        <mxCell id="XT1h-44MnQtlT5rtDKyg-13" style="edgeStyle=orthogonalEdgeStyle;rounded=0;orthogonalLoop=1;jettySize=auto;html=1;exitX=1;exitY=0.75;exitDx=0;exitDy=0;" edge="1" parent="XT1h-44MnQtlT5rtDKyg-1" source="XT1h-44MnQtlT5rtDKyg-17" target="XT1h-44MnQtlT5rtDKyg-20">
          <mxGeometry relative="1" as="geometry">
            <Array as="points">
              <mxPoint x="240" y="370" />
            </Array>
          </mxGeometry>
        </mxCell>
        <mxCell id="XT1h-44MnQtlT5rtDKyg-14" value="&lt;font style=&quot;font-size: 15px;&quot;&gt;Gene&lt;/font&gt;" style="edgeLabel;html=1;align=center;verticalAlign=middle;resizable=0;points=[];" vertex="1" connectable="0" parent="XT1h-44MnQtlT5rtDKyg-13">
          <mxGeometry x="0.0323" y="-1" relative="1" as="geometry">
            <mxPoint as="offset" />
          </mxGeometry>
        </mxCell>
        <mxCell id="XT1h-44MnQtlT5rtDKyg-15" style="edgeStyle=orthogonalEdgeStyle;rounded=0;orthogonalLoop=1;jettySize=auto;html=1;entryX=0;entryY=0.5;entryDx=0;entryDy=0;" edge="1" parent="XT1h-44MnQtlT5rtDKyg-1" target="XT1h-44MnQtlT5rtDKyg-31">
          <mxGeometry relative="1" as="geometry">
            <mxPoint x="160" y="400" as="sourcePoint" />
            <mxPoint x="570" y="850" as="targetPoint" />
            <Array as="points">
              <mxPoint x="160" y="880" />
            </Array>
          </mxGeometry>
        </mxCell>
        <mxCell id="XT1h-44MnQtlT5rtDKyg-16" value="&lt;font style=&quot;font-size: 15px;&quot;&gt;Using GDA Associations&lt;br&gt;Based on association score&lt;br&gt;&lt;/font&gt;" style="edgeLabel;html=1;align=center;verticalAlign=middle;resizable=0;points=[];" vertex="1" connectable="0" parent="XT1h-44MnQtlT5rtDKyg-15">
          <mxGeometry x="-0.2025" y="1" relative="1" as="geometry">
            <mxPoint as="offset" />
          </mxGeometry>
        </mxCell>
        <mxCell id="XT1h-44MnQtlT5rtDKyg-17" value="&lt;span style=&quot;font-size: 15px;&quot;&gt;Gene-Disease Association&lt;/span&gt;" style="rounded=0;whiteSpace=wrap;html=1;" vertex="1" parent="XT1h-44MnQtlT5rtDKyg-1">
          <mxGeometry x="80" y="300" width="160" height="100" as="geometry" />
        </mxCell>
        <mxCell id="XT1h-44MnQtlT5rtDKyg-18" value="" style="edgeStyle=orthogonalEdgeStyle;rounded=0;orthogonalLoop=1;jettySize=auto;html=1;" edge="1" parent="XT1h-44MnQtlT5rtDKyg-1" source="XT1h-44MnQtlT5rtDKyg-20" target="XT1h-44MnQtlT5rtDKyg-22">
          <mxGeometry relative="1" as="geometry" />
        </mxCell>
        <mxCell id="XT1h-44MnQtlT5rtDKyg-19" value="&lt;font style=&quot;font-size: 15px;&quot;&gt;Prot-T5&lt;/font&gt;" style="edgeLabel;html=1;align=center;verticalAlign=middle;resizable=0;points=[];" vertex="1" connectable="0" parent="XT1h-44MnQtlT5rtDKyg-18">
          <mxGeometry x="-0.4" y="3" relative="1" as="geometry">
            <mxPoint x="-3" y="16" as="offset" />
          </mxGeometry>
        </mxCell>
        <mxCell id="XT1h-44MnQtlT5rtDKyg-20" value="&lt;font style=&quot;font-size: 15px;&quot;&gt;UniProt&lt;/font&gt;" style="rounded=0;whiteSpace=wrap;html=1;" vertex="1" parent="XT1h-44MnQtlT5rtDKyg-1">
          <mxGeometry x="390" y="340" width="160" height="60" as="geometry" />
        </mxCell>
        <mxCell id="XT1h-44MnQtlT5rtDKyg-21" value="" style="edgeStyle=orthogonalEdgeStyle;rounded=0;orthogonalLoop=1;jettySize=auto;html=1;" edge="1" parent="XT1h-44MnQtlT5rtDKyg-1" source="XT1h-44MnQtlT5rtDKyg-22" target="XT1h-44MnQtlT5rtDKyg-24">
          <mxGeometry relative="1" as="geometry" />
        </mxCell>
        <mxCell id="XT1h-44MnQtlT5rtDKyg-22" value="&lt;span style=&quot;font-size: 15px; background-color: rgb(255, 255, 255);&quot;&gt;Find Protein Vector&lt;br&gt;Size: (1x1024)&lt;/span&gt;" style="rounded=0;whiteSpace=wrap;html=1;" vertex="1" parent="XT1h-44MnQtlT5rtDKyg-1">
          <mxGeometry x="390" y="520" width="160" height="60" as="geometry" />
        </mxCell>
        <mxCell id="XT1h-44MnQtlT5rtDKyg-23" value="" style="edgeStyle=orthogonalEdgeStyle;rounded=0;orthogonalLoop=1;jettySize=auto;html=1;" edge="1" parent="XT1h-44MnQtlT5rtDKyg-1" source="XT1h-44MnQtlT5rtDKyg-24" target="XT1h-44MnQtlT5rtDKyg-31">
          <mxGeometry relative="1" as="geometry">
            <Array as="points">
              <mxPoint x="470" y="790" />
              <mxPoint x="570" y="790" />
            </Array>
          </mxGeometry>
        </mxCell>
        <mxCell id="XT1h-44MnQtlT5rtDKyg-24" value="&lt;font style=&quot;font-size: 15px;&quot;&gt;Adding zeros end of the vector&lt;br&gt;Size: (1x1792)&lt;br&gt;&lt;/font&gt;" style="rounded=0;whiteSpace=wrap;html=1;" vertex="1" parent="XT1h-44MnQtlT5rtDKyg-1">
          <mxGeometry x="390" y="660" width="160" height="60" as="geometry" />
        </mxCell>
        <mxCell id="XT1h-44MnQtlT5rtDKyg-25" value="" style="edgeStyle=orthogonalEdgeStyle;rounded=0;orthogonalLoop=1;jettySize=auto;html=1;" edge="1" parent="XT1h-44MnQtlT5rtDKyg-1" source="XT1h-44MnQtlT5rtDKyg-26" target="XT1h-44MnQtlT5rtDKyg-27">
          <mxGeometry relative="1" as="geometry" />
        </mxCell>
        <mxCell id="XT1h-44MnQtlT5rtDKyg-26" value="&lt;font style=&quot;font-size: 15px;&quot;&gt;Find BioBert Model&lt;/font&gt;" style="rounded=0;whiteSpace=wrap;html=1;" vertex="1" parent="XT1h-44MnQtlT5rtDKyg-1">
          <mxGeometry x="590" y="390" width="160" height="60" as="geometry" />
        </mxCell>
        <mxCell id="XT1h-44MnQtlT5rtDKyg-27" value="&lt;font style=&quot;font-size: 15px;&quot;&gt;Generate DÄ°sase Vector&lt;br&gt;Size: (1x768)&lt;br&gt;&lt;/font&gt;" style="rounded=0;whiteSpace=wrap;html=1;" vertex="1" parent="XT1h-44MnQtlT5rtDKyg-1">
          <mxGeometry x="590" y="530" width="160" height="60" as="geometry" />
        </mxCell>
        <mxCell id="XT1h-44MnQtlT5rtDKyg-28" style="edgeStyle=orthogonalEdgeStyle;rounded=0;orthogonalLoop=1;jettySize=auto;html=1;entryX=0.5;entryY=0;entryDx=0;entryDy=0;" edge="1" parent="XT1h-44MnQtlT5rtDKyg-1" source="XT1h-44MnQtlT5rtDKyg-29" target="XT1h-44MnQtlT5rtDKyg-31">
          <mxGeometry relative="1" as="geometry">
            <Array as="points">
              <mxPoint x="670" y="790" />
              <mxPoint x="570" y="790" />
            </Array>
          </mxGeometry>
        </mxCell>
        <mxCell id="XT1h-44MnQtlT5rtDKyg-29" value="&lt;font style=&quot;font-size: 15px;&quot;&gt;Adding zeros beginning of the vector&lt;br&gt;Size: (1x1792)&lt;br&gt;&lt;/font&gt;" style="rounded=0;whiteSpace=wrap;html=1;" vertex="1" parent="XT1h-44MnQtlT5rtDKyg-1">
          <mxGeometry x="590" y="660" width="160" height="60" as="geometry" />
        </mxCell>
        <mxCell id="XT1h-44MnQtlT5rtDKyg-30" value="" style="edgeStyle=orthogonalEdgeStyle;rounded=0;orthogonalLoop=1;jettySize=auto;html=1;entryX=0.499;entryY=-0.067;entryDx=0;entryDy=0;entryPerimeter=0;exitX=0.5;exitY=1;exitDx=0;exitDy=0;" edge="1" parent="XT1h-44MnQtlT5rtDKyg-1" source="XT1h-44MnQtlT5rtDKyg-27" target="XT1h-44MnQtlT5rtDKyg-29">
          <mxGeometry relative="1" as="geometry">
            <mxPoint x="669.73" y="590" as="sourcePoint" />
            <mxPoint x="680" y="650" as="targetPoint" />
          </mxGeometry>
        </mxCell>
        <mxCell id="XT1h-44MnQtlT5rtDKyg-31" value="&lt;font style=&quot;font-size: 15px;&quot;&gt;Build Graph via NetworkX&lt;br&gt;&lt;/font&gt;" style="rounded=0;whiteSpace=wrap;html=1;" vertex="1" parent="XT1h-44MnQtlT5rtDKyg-1">
          <mxGeometry x="490" y="850" width="160" height="60" as="geometry" />
        </mxCell>
        <mxCell id="XT1h-44MnQtlT5rtDKyg-32" style="edgeStyle=orthogonalEdgeStyle;rounded=0;orthogonalLoop=1;jettySize=auto;html=1;entryX=0.5;entryY=1;entryDx=0;entryDy=0;" edge="1" parent="XT1h-44MnQtlT5rtDKyg-1" source="XT1h-44MnQtlT5rtDKyg-34" target="XT1h-44MnQtlT5rtDKyg-31">
          <mxGeometry relative="1" as="geometry">
            <Array as="points">
              <mxPoint x="320" y="950" />
              <mxPoint x="570" y="950" />
            </Array>
          </mxGeometry>
        </mxCell>
        <mxCell id="XT1h-44MnQtlT5rtDKyg-33" value="&lt;font style=&quot;font-size: 15px;&quot;&gt;via BioGrid&lt;/font&gt;" style="edgeLabel;html=1;align=center;verticalAlign=middle;resizable=0;points=[];" vertex="1" connectable="0" parent="XT1h-44MnQtlT5rtDKyg-32">
          <mxGeometry x="-0.4535" relative="1" as="geometry">
            <mxPoint x="40" y="-12" as="offset" />
          </mxGeometry>
        </mxCell>
        <mxCell id="XT1h-44MnQtlT5rtDKyg-34" value="&lt;font style=&quot;font-size: 15px;&quot;&gt;Adding Gene-Gene Association&lt;br&gt;&lt;/font&gt;" style="rounded=0;whiteSpace=wrap;html=1;" vertex="1" parent="XT1h-44MnQtlT5rtDKyg-1">
          <mxGeometry x="265" y="990" width="160" height="60" as="geometry" />
        </mxCell>
        <mxCell id="XT1h-44MnQtlT5rtDKyg-35" style="edgeStyle=orthogonalEdgeStyle;rounded=0;orthogonalLoop=1;jettySize=auto;html=1;entryX=0.5;entryY=1;entryDx=0;entryDy=0;" edge="1" parent="XT1h-44MnQtlT5rtDKyg-1" source="XT1h-44MnQtlT5rtDKyg-37" target="XT1h-44MnQtlT5rtDKyg-31">
          <mxGeometry relative="1" as="geometry">
            <Array as="points">
              <mxPoint x="740" y="950" />
              <mxPoint x="570" y="950" />
            </Array>
          </mxGeometry>
        </mxCell>
        <mxCell id="XT1h-44MnQtlT5rtDKyg-36" value="&lt;font style=&quot;font-size: 15px;&quot;&gt;via DisGeNet API&lt;/font&gt;" style="edgeLabel;html=1;align=center;verticalAlign=middle;resizable=0;points=[];" vertex="1" connectable="0" parent="XT1h-44MnQtlT5rtDKyg-35">
          <mxGeometry x="-0.2926" relative="1" as="geometry">
            <mxPoint x="-11" y="-12" as="offset" />
          </mxGeometry>
        </mxCell>
        <mxCell id="XT1h-44MnQtlT5rtDKyg-37" value="&lt;font style=&quot;font-size: 15px;&quot;&gt;Adding Disease-Disease Association&amp;nbsp;&lt;br&gt;&lt;/font&gt;" style="rounded=0;whiteSpace=wrap;html=1;" vertex="1" parent="XT1h-44MnQtlT5rtDKyg-1">
          <mxGeometry x="660" y="990" width="160" height="60" as="geometry" />
        </mxCell>
      </root>
    </mxGraphModel>
  </diagram>
  <diagram name="build-ogb-graph" id="lJ93mLlJt256E0GYc-sR">
    <mxGraphModel dx="1380" dy="749" grid="1" gridSize="10" guides="1" tooltips="1" connect="1" arrows="1" fold="1" page="1" pageScale="1" pageWidth="850" pageHeight="1100" math="0" shadow="0">
      <root>
        <mxCell id="AIW8zsDmB-OPLLxrtjwm-0" />
        <mxCell id="AIW8zsDmB-OPLLxrtjwm-1" parent="AIW8zsDmB-OPLLxrtjwm-0" />
        <mxCell id="AIW8zsDmB-OPLLxrtjwm-2" value="" style="edgeStyle=orthogonalEdgeStyle;rounded=0;orthogonalLoop=1;jettySize=auto;html=1;" edge="1" parent="AIW8zsDmB-OPLLxrtjwm-1" source="AIW8zsDmB-OPLLxrtjwm-4" target="AIW8zsDmB-OPLLxrtjwm-17">
          <mxGeometry relative="1" as="geometry" />
        </mxCell>
        <mxCell id="AIW8zsDmB-OPLLxrtjwm-3" value="&lt;font style=&quot;font-size: 15px;&quot;&gt;Dataset : ogbl-biokg&lt;/font&gt;" style="edgeLabel;html=1;align=center;verticalAlign=middle;resizable=0;points=[];" vertex="1" connectable="0" parent="AIW8zsDmB-OPLLxrtjwm-2">
          <mxGeometry x="0.1" y="2" relative="1" as="geometry">
            <mxPoint as="offset" />
          </mxGeometry>
        </mxCell>
        <mxCell id="AIW8zsDmB-OPLLxrtjwm-4" value="&lt;font style=&quot;font-size: 15px;&quot;&gt;OGB&lt;/font&gt;" style="rounded=0;whiteSpace=wrap;html=1;" vertex="1" parent="AIW8zsDmB-OPLLxrtjwm-1">
          <mxGeometry x="80" y="40" width="160" height="60" as="geometry" />
        </mxCell>
        <mxCell id="AIW8zsDmB-OPLLxrtjwm-5" value="" style="edgeStyle=orthogonalEdgeStyle;rounded=0;orthogonalLoop=1;jettySize=auto;html=1;" edge="1" parent="AIW8zsDmB-OPLLxrtjwm-1" source="AIW8zsDmB-OPLLxrtjwm-7" target="AIW8zsDmB-OPLLxrtjwm-10">
          <mxGeometry relative="1" as="geometry" />
        </mxCell>
        <mxCell id="AIW8zsDmB-OPLLxrtjwm-6" value="&lt;font style=&quot;font-size: 15px;&quot;&gt;Using API&lt;/font&gt;" style="edgeLabel;html=1;align=center;verticalAlign=middle;resizable=0;points=[];" vertex="1" connectable="0" parent="AIW8zsDmB-OPLLxrtjwm-5">
          <mxGeometry x="-0.4" y="3" relative="1" as="geometry">
            <mxPoint x="-3" y="16" as="offset" />
          </mxGeometry>
        </mxCell>
        <mxCell id="AIW8zsDmB-OPLLxrtjwm-7" value="&lt;font style=&quot;font-size: 15px;&quot;&gt;UMLS&lt;/font&gt;" style="rounded=0;whiteSpace=wrap;html=1;" vertex="1" parent="AIW8zsDmB-OPLLxrtjwm-1">
          <mxGeometry x="590" y="40" width="160" height="60" as="geometry" />
        </mxCell>
        <mxCell id="AIW8zsDmB-OPLLxrtjwm-8" value="" style="edgeStyle=orthogonalEdgeStyle;rounded=0;orthogonalLoop=1;jettySize=auto;html=1;" edge="1" parent="AIW8zsDmB-OPLLxrtjwm-1" source="AIW8zsDmB-OPLLxrtjwm-10" target="AIW8zsDmB-OPLLxrtjwm-26">
          <mxGeometry relative="1" as="geometry" />
        </mxCell>
        <mxCell id="AIW8zsDmB-OPLLxrtjwm-9" value="&lt;font style=&quot;font-size: 15px;&quot;&gt;Using Hugging Face&lt;/font&gt;" style="edgeLabel;html=1;align=center;verticalAlign=middle;resizable=0;points=[];" vertex="1" connectable="0" parent="AIW8zsDmB-OPLLxrtjwm-8">
          <mxGeometry x="0.0182" y="2" relative="1" as="geometry">
            <mxPoint as="offset" />
          </mxGeometry>
        </mxCell>
        <mxCell id="AIW8zsDmB-OPLLxrtjwm-10" value="&lt;span style=&quot;font-size: 15px;&quot;&gt;Disease Definement&lt;/span&gt;" style="rounded=0;whiteSpace=wrap;html=1;" vertex="1" parent="AIW8zsDmB-OPLLxrtjwm-1">
          <mxGeometry x="590" y="220" width="160" height="60" as="geometry" />
        </mxCell>
        <mxCell id="AIW8zsDmB-OPLLxrtjwm-11" value="" style="edgeStyle=orthogonalEdgeStyle;rounded=0;orthogonalLoop=1;jettySize=auto;html=1;entryX=0;entryY=0.5;entryDx=0;entryDy=0;" edge="1" parent="AIW8zsDmB-OPLLxrtjwm-1" target="AIW8zsDmB-OPLLxrtjwm-7">
          <mxGeometry relative="1" as="geometry">
            <mxPoint x="240" y="310" as="sourcePoint" />
            <mxPoint x="570" y="320" as="targetPoint" />
            <Array as="points" />
          </mxGeometry>
        </mxCell>
        <mxCell id="AIW8zsDmB-OPLLxrtjwm-12" value="&lt;font style=&quot;font-size: 15px;&quot;&gt;Disease&lt;/font&gt;" style="edgeLabel;html=1;align=center;verticalAlign=middle;resizable=0;points=[];" vertex="1" connectable="0" parent="AIW8zsDmB-OPLLxrtjwm-11">
          <mxGeometry x="-0.0516" y="3" relative="1" as="geometry">
            <mxPoint x="1" as="offset" />
          </mxGeometry>
        </mxCell>
        <mxCell id="AIW8zsDmB-OPLLxrtjwm-13" style="edgeStyle=orthogonalEdgeStyle;rounded=0;orthogonalLoop=1;jettySize=auto;html=1;exitX=1;exitY=0.75;exitDx=0;exitDy=0;" edge="1" parent="AIW8zsDmB-OPLLxrtjwm-1" source="AIW8zsDmB-OPLLxrtjwm-17" target="AIW8zsDmB-OPLLxrtjwm-20">
          <mxGeometry relative="1" as="geometry">
            <Array as="points">
              <mxPoint x="240" y="370" />
            </Array>
          </mxGeometry>
        </mxCell>
        <mxCell id="AIW8zsDmB-OPLLxrtjwm-14" value="&lt;font style=&quot;font-size: 15px;&quot;&gt;Gene&lt;/font&gt;" style="edgeLabel;html=1;align=center;verticalAlign=middle;resizable=0;points=[];" vertex="1" connectable="0" parent="AIW8zsDmB-OPLLxrtjwm-13">
          <mxGeometry x="0.0323" y="-1" relative="1" as="geometry">
            <mxPoint as="offset" />
          </mxGeometry>
        </mxCell>
        <mxCell id="AIW8zsDmB-OPLLxrtjwm-15" style="edgeStyle=orthogonalEdgeStyle;rounded=0;orthogonalLoop=1;jettySize=auto;html=1;entryX=0;entryY=0.5;entryDx=0;entryDy=0;" edge="1" parent="AIW8zsDmB-OPLLxrtjwm-1" target="AIW8zsDmB-OPLLxrtjwm-31">
          <mxGeometry relative="1" as="geometry">
            <mxPoint x="160" y="400" as="sourcePoint" />
            <mxPoint x="570" y="850" as="targetPoint" />
            <Array as="points">
              <mxPoint x="160" y="880" />
            </Array>
          </mxGeometry>
        </mxCell>
        <mxCell id="AIW8zsDmB-OPLLxrtjwm-16" value="&lt;font style=&quot;font-size: 15px;&quot;&gt;Using GDA Associations&lt;br&gt;Based on association score&lt;br&gt;&lt;/font&gt;" style="edgeLabel;html=1;align=center;verticalAlign=middle;resizable=0;points=[];" vertex="1" connectable="0" parent="AIW8zsDmB-OPLLxrtjwm-15">
          <mxGeometry x="-0.2025" y="1" relative="1" as="geometry">
            <mxPoint as="offset" />
          </mxGeometry>
        </mxCell>
        <mxCell id="AIW8zsDmB-OPLLxrtjwm-17" value="&lt;span style=&quot;font-size: 15px;&quot;&gt;Gene-Disease Association&lt;/span&gt;" style="rounded=0;whiteSpace=wrap;html=1;" vertex="1" parent="AIW8zsDmB-OPLLxrtjwm-1">
          <mxGeometry x="80" y="300" width="160" height="100" as="geometry" />
        </mxCell>
        <mxCell id="AIW8zsDmB-OPLLxrtjwm-18" value="" style="edgeStyle=orthogonalEdgeStyle;rounded=0;orthogonalLoop=1;jettySize=auto;html=1;" edge="1" parent="AIW8zsDmB-OPLLxrtjwm-1" source="AIW8zsDmB-OPLLxrtjwm-20" target="AIW8zsDmB-OPLLxrtjwm-22">
          <mxGeometry relative="1" as="geometry" />
        </mxCell>
        <mxCell id="AIW8zsDmB-OPLLxrtjwm-19" value="&lt;font style=&quot;font-size: 15px;&quot;&gt;Prot-T5&lt;/font&gt;" style="edgeLabel;html=1;align=center;verticalAlign=middle;resizable=0;points=[];" vertex="1" connectable="0" parent="AIW8zsDmB-OPLLxrtjwm-18">
          <mxGeometry x="-0.4" y="3" relative="1" as="geometry">
            <mxPoint x="-3" y="16" as="offset" />
          </mxGeometry>
        </mxCell>
        <mxCell id="AIW8zsDmB-OPLLxrtjwm-20" value="&lt;font style=&quot;font-size: 15px;&quot;&gt;UniProt&lt;/font&gt;" style="rounded=0;whiteSpace=wrap;html=1;" vertex="1" parent="AIW8zsDmB-OPLLxrtjwm-1">
          <mxGeometry x="390" y="340" width="160" height="60" as="geometry" />
        </mxCell>
        <mxCell id="AIW8zsDmB-OPLLxrtjwm-21" value="" style="edgeStyle=orthogonalEdgeStyle;rounded=0;orthogonalLoop=1;jettySize=auto;html=1;" edge="1" parent="AIW8zsDmB-OPLLxrtjwm-1" source="AIW8zsDmB-OPLLxrtjwm-22" target="AIW8zsDmB-OPLLxrtjwm-24">
          <mxGeometry relative="1" as="geometry" />
        </mxCell>
        <mxCell id="AIW8zsDmB-OPLLxrtjwm-22" value="&lt;span style=&quot;font-size: 15px; background-color: rgb(255, 255, 255);&quot;&gt;Find Protein Vector&lt;br&gt;Size: (1x1024)&lt;/span&gt;" style="rounded=0;whiteSpace=wrap;html=1;" vertex="1" parent="AIW8zsDmB-OPLLxrtjwm-1">
          <mxGeometry x="390" y="520" width="160" height="60" as="geometry" />
        </mxCell>
        <mxCell id="AIW8zsDmB-OPLLxrtjwm-23" value="" style="edgeStyle=orthogonalEdgeStyle;rounded=0;orthogonalLoop=1;jettySize=auto;html=1;" edge="1" parent="AIW8zsDmB-OPLLxrtjwm-1" source="AIW8zsDmB-OPLLxrtjwm-24" target="AIW8zsDmB-OPLLxrtjwm-31">
          <mxGeometry relative="1" as="geometry">
            <Array as="points">
              <mxPoint x="470" y="790" />
              <mxPoint x="570" y="790" />
            </Array>
          </mxGeometry>
        </mxCell>
        <mxCell id="AIW8zsDmB-OPLLxrtjwm-24" value="&lt;font style=&quot;font-size: 15px;&quot;&gt;Adding zeros end of the vector&lt;br&gt;Size: (1x1792)&lt;br&gt;&lt;/font&gt;" style="rounded=0;whiteSpace=wrap;html=1;" vertex="1" parent="AIW8zsDmB-OPLLxrtjwm-1">
          <mxGeometry x="390" y="660" width="160" height="60" as="geometry" />
        </mxCell>
        <mxCell id="AIW8zsDmB-OPLLxrtjwm-25" value="" style="edgeStyle=orthogonalEdgeStyle;rounded=0;orthogonalLoop=1;jettySize=auto;html=1;" edge="1" parent="AIW8zsDmB-OPLLxrtjwm-1" source="AIW8zsDmB-OPLLxrtjwm-26" target="AIW8zsDmB-OPLLxrtjwm-27">
          <mxGeometry relative="1" as="geometry" />
        </mxCell>
        <mxCell id="AIW8zsDmB-OPLLxrtjwm-26" value="&lt;font style=&quot;font-size: 15px;&quot;&gt;Find BioBert Model&lt;/font&gt;" style="rounded=0;whiteSpace=wrap;html=1;" vertex="1" parent="AIW8zsDmB-OPLLxrtjwm-1">
          <mxGeometry x="590" y="390" width="160" height="60" as="geometry" />
        </mxCell>
        <mxCell id="AIW8zsDmB-OPLLxrtjwm-27" value="&lt;font style=&quot;font-size: 15px;&quot;&gt;Generate DÄ°sase Vector&lt;br&gt;Size: (1x768)&lt;br&gt;&lt;/font&gt;" style="rounded=0;whiteSpace=wrap;html=1;" vertex="1" parent="AIW8zsDmB-OPLLxrtjwm-1">
          <mxGeometry x="590" y="530" width="160" height="60" as="geometry" />
        </mxCell>
        <mxCell id="AIW8zsDmB-OPLLxrtjwm-28" style="edgeStyle=orthogonalEdgeStyle;rounded=0;orthogonalLoop=1;jettySize=auto;html=1;entryX=0.5;entryY=0;entryDx=0;entryDy=0;" edge="1" parent="AIW8zsDmB-OPLLxrtjwm-1" source="AIW8zsDmB-OPLLxrtjwm-29" target="AIW8zsDmB-OPLLxrtjwm-31">
          <mxGeometry relative="1" as="geometry">
            <Array as="points">
              <mxPoint x="670" y="790" />
              <mxPoint x="570" y="790" />
            </Array>
          </mxGeometry>
        </mxCell>
        <mxCell id="AIW8zsDmB-OPLLxrtjwm-29" value="&lt;font style=&quot;font-size: 15px;&quot;&gt;Adding zeros beginning of the vector&lt;br&gt;Size: (1x1792)&lt;br&gt;&lt;/font&gt;" style="rounded=0;whiteSpace=wrap;html=1;" vertex="1" parent="AIW8zsDmB-OPLLxrtjwm-1">
          <mxGeometry x="590" y="660" width="160" height="60" as="geometry" />
        </mxCell>
        <mxCell id="AIW8zsDmB-OPLLxrtjwm-30" value="" style="edgeStyle=orthogonalEdgeStyle;rounded=0;orthogonalLoop=1;jettySize=auto;html=1;entryX=0.499;entryY=-0.067;entryDx=0;entryDy=0;entryPerimeter=0;exitX=0.5;exitY=1;exitDx=0;exitDy=0;" edge="1" parent="AIW8zsDmB-OPLLxrtjwm-1" source="AIW8zsDmB-OPLLxrtjwm-27" target="AIW8zsDmB-OPLLxrtjwm-29">
          <mxGeometry relative="1" as="geometry">
            <mxPoint x="669.73" y="590" as="sourcePoint" />
            <mxPoint x="680" y="650" as="targetPoint" />
          </mxGeometry>
        </mxCell>
        <mxCell id="AIW8zsDmB-OPLLxrtjwm-31" value="&lt;font style=&quot;font-size: 15px;&quot;&gt;Build Graph via NetworkX&lt;br&gt;&lt;/font&gt;" style="rounded=0;whiteSpace=wrap;html=1;" vertex="1" parent="AIW8zsDmB-OPLLxrtjwm-1">
          <mxGeometry x="490" y="850" width="160" height="60" as="geometry" />
        </mxCell>
        <mxCell id="AIW8zsDmB-OPLLxrtjwm-32" style="edgeStyle=orthogonalEdgeStyle;rounded=0;orthogonalLoop=1;jettySize=auto;html=1;entryX=0.5;entryY=1;entryDx=0;entryDy=0;" edge="1" parent="AIW8zsDmB-OPLLxrtjwm-1" source="AIW8zsDmB-OPLLxrtjwm-34" target="AIW8zsDmB-OPLLxrtjwm-31">
          <mxGeometry relative="1" as="geometry">
            <Array as="points">
              <mxPoint x="320" y="950" />
              <mxPoint x="570" y="950" />
            </Array>
          </mxGeometry>
        </mxCell>
        <mxCell id="AIW8zsDmB-OPLLxrtjwm-33" value="&lt;font style=&quot;font-size: 15px;&quot;&gt;via BioGrid&lt;/font&gt;" style="edgeLabel;html=1;align=center;verticalAlign=middle;resizable=0;points=[];" vertex="1" connectable="0" parent="AIW8zsDmB-OPLLxrtjwm-32">
          <mxGeometry x="-0.4535" relative="1" as="geometry">
            <mxPoint x="40" y="-12" as="offset" />
          </mxGeometry>
        </mxCell>
        <mxCell id="AIW8zsDmB-OPLLxrtjwm-34" value="&lt;font style=&quot;font-size: 15px;&quot;&gt;Adding Gene-Gene Association&lt;br&gt;&lt;/font&gt;" style="rounded=0;whiteSpace=wrap;html=1;" vertex="1" parent="AIW8zsDmB-OPLLxrtjwm-1">
          <mxGeometry x="265" y="990" width="160" height="60" as="geometry" />
        </mxCell>
        <mxCell id="AIW8zsDmB-OPLLxrtjwm-35" style="edgeStyle=orthogonalEdgeStyle;rounded=0;orthogonalLoop=1;jettySize=auto;html=1;entryX=0.5;entryY=1;entryDx=0;entryDy=0;" edge="1" parent="AIW8zsDmB-OPLLxrtjwm-1" source="AIW8zsDmB-OPLLxrtjwm-37" target="AIW8zsDmB-OPLLxrtjwm-31">
          <mxGeometry relative="1" as="geometry">
            <Array as="points">
              <mxPoint x="740" y="950" />
              <mxPoint x="570" y="950" />
            </Array>
          </mxGeometry>
        </mxCell>
        <mxCell id="AIW8zsDmB-OPLLxrtjwm-36" value="&lt;font style=&quot;font-size: 15px;&quot;&gt;via DisGeNet API&lt;/font&gt;" style="edgeLabel;html=1;align=center;verticalAlign=middle;resizable=0;points=[];" vertex="1" connectable="0" parent="AIW8zsDmB-OPLLxrtjwm-35">
          <mxGeometry x="-0.2926" relative="1" as="geometry">
            <mxPoint x="-11" y="-12" as="offset" />
          </mxGeometry>
        </mxCell>
        <mxCell id="AIW8zsDmB-OPLLxrtjwm-37" value="&lt;font style=&quot;font-size: 15px;&quot;&gt;Adding Disease-Disease Association&amp;nbsp;&lt;br&gt;&lt;/font&gt;" style="rounded=0;whiteSpace=wrap;html=1;" vertex="1" parent="AIW8zsDmB-OPLLxrtjwm-1">
          <mxGeometry x="660" y="990" width="160" height="60" as="geometry" />
        </mxCell>
      </root>
    </mxGraphModel>
  </diagram>
  <diagram id="ejqTG1RK8EDQAeah2Slj" name="run_model">
    <mxGraphModel dx="1200" dy="651" grid="1" gridSize="10" guides="1" tooltips="1" connect="1" arrows="1" fold="1" page="1" pageScale="1" pageWidth="850" pageHeight="1100" math="0" shadow="0">
      <root>
        <mxCell id="0" />
        <mxCell id="1" parent="0" />
        <mxCell id="kL9ldsdfYuG12DNRqkwo-1" value="&lt;font style=&quot;font-size: 15px;&quot;&gt;Input Graph&lt;/font&gt;" style="rounded=0;whiteSpace=wrap;html=1;" vertex="1" parent="1">
          <mxGeometry x="365.5" y="60" width="120" height="60" as="geometry" />
        </mxCell>
        <mxCell id="kL9ldsdfYuG12DNRqkwo-17" style="edgeStyle=orthogonalEdgeStyle;rounded=0;orthogonalLoop=1;jettySize=auto;html=1;entryX=0.001;entryY=0.524;entryDx=0;entryDy=0;entryPerimeter=0;exitX=0.5;exitY=1;exitDx=0;exitDy=0;" edge="1" parent="1" source="kL9ldsdfYuG12DNRqkwo-2" target="kL9ldsdfYuG12DNRqkwo-4">
          <mxGeometry relative="1" as="geometry">
            <Array as="points">
              <mxPoint x="60" y="130" />
              <mxPoint x="60" y="384" />
            </Array>
          </mxGeometry>
        </mxCell>
        <mxCell id="kL9ldsdfYuG12DNRqkwo-2" value="&lt;span style=&quot;font-size: 15px;&quot;&gt;Uniref50&lt;/span&gt;" style="rounded=0;whiteSpace=wrap;html=1;" vertex="1" parent="1">
          <mxGeometry x="5.5" y="70" width="120" height="60" as="geometry" />
        </mxCell>
        <mxCell id="kL9ldsdfYuG12DNRqkwo-16" value="" style="edgeStyle=orthogonalEdgeStyle;rounded=0;orthogonalLoop=1;jettySize=auto;html=1;" edge="1" parent="1" source="kL9ldsdfYuG12DNRqkwo-4" target="kL9ldsdfYuG12DNRqkwo-15">
          <mxGeometry relative="1" as="geometry" />
        </mxCell>
        <mxCell id="kL9ldsdfYuG12DNRqkwo-22" value="&lt;font style=&quot;font-size: 15px;&quot;&gt;Split operation is completed&lt;/font&gt;" style="edgeLabel;html=1;align=center;verticalAlign=middle;resizable=0;points=[];" vertex="1" connectable="0" parent="kL9ldsdfYuG12DNRqkwo-16">
          <mxGeometry x="0.0047" relative="1" as="geometry">
            <mxPoint as="offset" />
          </mxGeometry>
        </mxCell>
        <mxCell id="kL9ldsdfYuG12DNRqkwo-4" value="" style="rounded=0;whiteSpace=wrap;html=1;" vertex="1" parent="1">
          <mxGeometry x="125.5" y="240" width="600" height="275" as="geometry" />
        </mxCell>
        <mxCell id="kL9ldsdfYuG12DNRqkwo-11" value="" style="edgeStyle=orthogonalEdgeStyle;rounded=0;orthogonalLoop=1;jettySize=auto;html=1;" edge="1" parent="1" source="kL9ldsdfYuG12DNRqkwo-8" target="kL9ldsdfYuG12DNRqkwo-10">
          <mxGeometry relative="1" as="geometry" />
        </mxCell>
        <mxCell id="kL9ldsdfYuG12DNRqkwo-8" value="&lt;font style=&quot;font-size: 15px;&quot;&gt;Gene-gene and disease-disease associations are separated to assist model training.&lt;/font&gt;" style="rounded=0;whiteSpace=wrap;html=1;" vertex="1" parent="1">
          <mxGeometry x="160" y="320" width="120" height="160" as="geometry" />
        </mxCell>
        <mxCell id="kL9ldsdfYuG12DNRqkwo-9" style="edgeStyle=orthogonalEdgeStyle;rounded=0;orthogonalLoop=1;jettySize=auto;html=1;entryX=0.5;entryY=0;entryDx=0;entryDy=0;" edge="1" parent="1" target="kL9ldsdfYuG12DNRqkwo-8">
          <mxGeometry relative="1" as="geometry">
            <mxPoint x="220" y="240" as="sourcePoint" />
            <mxPoint x="220" y="325" as="targetPoint" />
            <Array as="points">
              <mxPoint x="220" y="320" />
            </Array>
          </mxGeometry>
        </mxCell>
        <mxCell id="kL9ldsdfYuG12DNRqkwo-13" value="" style="edgeStyle=orthogonalEdgeStyle;rounded=0;orthogonalLoop=1;jettySize=auto;html=1;" edge="1" parent="1" source="kL9ldsdfYuG12DNRqkwo-10" target="kL9ldsdfYuG12DNRqkwo-12">
          <mxGeometry relative="1" as="geometry" />
        </mxCell>
        <mxCell id="kL9ldsdfYuG12DNRqkwo-10" value="&lt;font style=&quot;font-size: 15px;&quot;&gt;Negative gene-disease associations are created.&lt;/font&gt;" style="rounded=0;whiteSpace=wrap;html=1;" vertex="1" parent="1">
          <mxGeometry x="365" y="320" width="120" height="160" as="geometry" />
        </mxCell>
        <mxCell id="kL9ldsdfYuG12DNRqkwo-12" value="&lt;font style=&quot;font-size: 15px;&quot;&gt;All gene-disease associations are split based on Uniref50.&lt;/font&gt;" style="rounded=0;whiteSpace=wrap;html=1;" vertex="1" parent="1">
          <mxGeometry x="565" y="320" width="120" height="160" as="geometry" />
        </mxCell>
        <mxCell id="kL9ldsdfYuG12DNRqkwo-14" style="edgeStyle=orthogonalEdgeStyle;rounded=0;orthogonalLoop=1;jettySize=auto;html=1;exitX=0.5;exitY=1;exitDx=0;exitDy=0;" edge="1" parent="1" source="kL9ldsdfYuG12DNRqkwo-4" target="kL9ldsdfYuG12DNRqkwo-4">
          <mxGeometry relative="1" as="geometry" />
        </mxCell>
        <mxCell id="kL9ldsdfYuG12DNRqkwo-36" value="" style="edgeStyle=orthogonalEdgeStyle;rounded=0;orthogonalLoop=1;jettySize=auto;html=1;" edge="1" parent="1" source="kL9ldsdfYuG12DNRqkwo-15" target="kL9ldsdfYuG12DNRqkwo-35">
          <mxGeometry relative="1" as="geometry" />
        </mxCell>
        <mxCell id="kL9ldsdfYuG12DNRqkwo-15" value="" style="rounded=0;whiteSpace=wrap;html=1;" vertex="1" parent="1">
          <mxGeometry x="130" y="610" width="600" height="250" as="geometry" />
        </mxCell>
        <mxCell id="kL9ldsdfYuG12DNRqkwo-19" style="edgeStyle=orthogonalEdgeStyle;rounded=0;orthogonalLoop=1;jettySize=auto;html=1;entryX=0.51;entryY=-0.007;entryDx=0;entryDy=0;entryPerimeter=0;" edge="1" parent="1" source="kL9ldsdfYuG12DNRqkwo-1" target="kL9ldsdfYuG12DNRqkwo-4">
          <mxGeometry relative="1" as="geometry">
            <Array as="points">
              <mxPoint x="432" y="195" />
              <mxPoint x="431" y="195" />
            </Array>
          </mxGeometry>
        </mxCell>
        <mxCell id="kL9ldsdfYuG12DNRqkwo-21" value="&lt;font color=&quot;#f19c99&quot; size=&quot;1&quot; style=&quot;&quot;&gt;&lt;span style=&quot;font-size: 20px;&quot;&gt;Split Algorithm&lt;/span&gt;&lt;/font&gt;" style="text;html=1;align=center;verticalAlign=middle;resizable=0;points=[];autosize=1;strokeColor=none;fillColor=none;" vertex="1" parent="1">
          <mxGeometry x="555" y="240" width="150" height="40" as="geometry" />
        </mxCell>
        <mxCell id="kL9ldsdfYuG12DNRqkwo-23" value="&lt;font style=&quot;&quot;&gt;&lt;font color=&quot;#f19c99&quot; style=&quot;font-size: 20px;&quot;&gt;Model Architecture&lt;/font&gt;&lt;br&gt;&lt;/font&gt;" style="text;html=1;align=center;verticalAlign=middle;resizable=0;points=[];autosize=1;strokeColor=none;fillColor=none;" vertex="1" parent="1">
          <mxGeometry x="535" y="610" width="190" height="40" as="geometry" />
        </mxCell>
        <mxCell id="kL9ldsdfYuG12DNRqkwo-33" value="" style="edgeStyle=orthogonalEdgeStyle;rounded=0;orthogonalLoop=1;jettySize=auto;html=1;" edge="1" parent="1" source="kL9ldsdfYuG12DNRqkwo-24" target="kL9ldsdfYuG12DNRqkwo-32">
          <mxGeometry relative="1" as="geometry" />
        </mxCell>
        <mxCell id="kL9ldsdfYuG12DNRqkwo-24" value="&lt;font style=&quot;font-size: 15px;&quot;&gt;First GCN &lt;br&gt;Network Layer&lt;br&gt;Input Dense: 1792&lt;br&gt;Output Dense: 112&lt;br&gt;&lt;/font&gt;" style="rounded=0;whiteSpace=wrap;html=1;" vertex="1" parent="1">
          <mxGeometry x="150" y="670" width="130" height="140" as="geometry" />
        </mxCell>
        <mxCell id="kL9ldsdfYuG12DNRqkwo-31" style="edgeStyle=orthogonalEdgeStyle;rounded=0;orthogonalLoop=1;jettySize=auto;html=1;entryX=0.25;entryY=0;entryDx=0;entryDy=0;" edge="1" parent="1" target="kL9ldsdfYuG12DNRqkwo-24">
          <mxGeometry relative="1" as="geometry">
            <mxPoint x="183" y="610" as="sourcePoint" />
            <mxPoint x="210" y="715.04" as="targetPoint" />
            <Array as="points">
              <mxPoint x="183" y="610" />
            </Array>
          </mxGeometry>
        </mxCell>
        <mxCell id="kL9ldsdfYuG12DNRqkwo-32" value="&lt;font style=&quot;font-size: 15px;&quot;&gt;Second GCN &lt;br&gt;Network Layer&lt;br&gt;Input Dense: 112&lt;br&gt;Output Dense: 28&lt;br&gt;&lt;/font&gt;" style="rounded=0;whiteSpace=wrap;html=1;" vertex="1" parent="1">
          <mxGeometry x="360" y="670" width="130" height="140" as="geometry" />
        </mxCell>
        <mxCell id="kL9ldsdfYuG12DNRqkwo-34" value="&lt;font style=&quot;font-size: 14px;&quot;&gt;&lt;font color=&quot;#30ff8a&quot; style=&quot;font-size: 17px;&quot;&gt;Configuration&lt;/font&gt;&lt;br&gt;&lt;font color=&quot;#66b2ff&quot;&gt;&lt;font style=&quot;font-size: 16px;&quot;&gt;Optimizer&lt;/font&gt;&lt;b style=&quot;font-size: 15px;&quot;&gt;: &lt;/b&gt;&lt;/font&gt;&lt;br&gt;AdamW (&lt;span style=&quot;&quot;&gt;lr: 0.001&lt;/span&gt;&lt;span style=&quot;&quot;&gt;)&lt;/span&gt;&lt;br&gt;&lt;span style=&quot;&quot;&gt;&lt;font color=&quot;#66b2ff&quot;&gt;&lt;font style=&quot;font-size: 16px;&quot;&gt;Loss Function:&amp;nbsp;&lt;/font&gt;&lt;br&gt;&lt;/font&gt;&lt;/span&gt;&lt;/font&gt;&lt;font style=&quot;font-size: 14px;&quot;&gt;BCEWithLogitsLoss&lt;/font&gt;" style="rounded=0;whiteSpace=wrap;html=1;" vertex="1" parent="1">
          <mxGeometry x="550" y="670" width="160" height="140" as="geometry" />
        </mxCell>
        <mxCell id="kL9ldsdfYuG12DNRqkwo-35" value="&lt;font style=&quot;font-size: 15px;&quot;&gt;Test Model&lt;/font&gt;" style="rounded=0;whiteSpace=wrap;html=1;" vertex="1" parent="1">
          <mxGeometry x="317.5" y="940" width="225" height="50" as="geometry" />
        </mxCell>
      </root>
    </mxGraphModel>
  </diagram>
</mxfile>
